<svg width="3034" height="1003" viewBox="0 0 3034 1003" fill="none" xmlns="http://www.w3.org/2000/svg">
<g clip-path="url(#clip0_3_86)">
<path d="M1633.71 601H1479.21V663.5H1611.21V741.5H1479.21V879H1391.71V523H1633.71V601ZM1883.92 771H1722.92C1722.92 793 1739.92 813 1770.42 813C1798.92 813 1811.42 805 1825.92 790.5L1874.92 839.5C1847.42 867 1820.42 882 1770.42 882C1710.92 882 1642.42 860.5 1642.42 744.5C1642.42 656.5 1692.42 607 1762.92 607C1840.92 607 1883.92 664 1883.92 734.5V771ZM1802.92 716.5C1802.92 710 1801.92 702.5 1798.42 695.5C1793.42 684 1782.42 674.5 1762.92 674.5C1743.42 674.5 1732.42 684 1727.42 695.5C1723.92 702.5 1722.92 710 1722.92 716.5H1802.92ZM2148.22 771H1987.22C1987.22 793 2004.22 813 2034.72 813C2063.22 813 2075.72 805 2090.22 790.5L2139.22 839.5C2111.72 867 2084.72 882 2034.72 882C1975.22 882 1906.72 860.5 1906.72 744.5C1906.72 656.5 1956.72 607 2027.22 607C2105.22 607 2148.22 664 2148.22 734.5V771ZM2067.22 716.5C2067.22 710 2066.22 702.5 2062.72 695.5C2057.72 684 2046.72 674.5 2027.22 674.5C2007.72 674.5 1996.72 684 1991.72 695.5C1988.22 702.5 1987.22 710 1987.22 716.5H2067.22ZM2307.52 879H2264.02C2204.52 879 2180.52 836.5 2180.52 799.5V523H2262.52V793.5C2262.52 804 2268.02 810 2279.02 810H2307.52V879ZM2420.43 582.5H2338.43V520H2420.43V582.5ZM2420.43 879H2338.43V620.5H2420.43V879ZM2697.47 879H2615.47V718C2615.47 687 2593.47 681 2582.47 681C2571.47 681 2549.47 687 2549.47 718V879H2467.47V610H2547.47V632C2563.97 615.5 2588.47 607 2609.97 607C2635.47 607 2655.97 615.5 2670.47 630C2693.47 653 2697.47 678.5 2697.47 707V879ZM2960.52 859.5C2960.52 923 2912.52 969 2839.02 969C2797.02 969 2765.52 961.5 2738.02 934L2789.02 883C2801.52 895.5 2816.52 900 2835.02 900C2869.52 900 2878.52 876.5 2878.52 859V839.5C2863.52 854.5 2845.52 862 2820.52 862C2794.52 862 2773.02 853.5 2757.52 838C2733.02 813.5 2732.52 783.5 2732.52 734.5C2732.52 685.5 2733.02 655.5 2757.52 631C2773.02 615.5 2795.02 607 2821.02 607C2848.52 607 2864.52 615.5 2881.02 632V610H2960.52V859.5ZM2878.52 734.5C2878.52 707 2876.52 681 2846.52 681C2816.52 681 2814.52 707 2814.52 734.5C2814.52 762 2816.52 788 2846.52 788C2876.52 788 2878.52 762 2878.52 734.5Z" fill="black"/>
<path d="M340.48 454C340.48 526.5 277.98 566 202.98 566C148.48 566 103.98 556 67.9805 519L123.98 463C142.48 481.5 174.98 488 203.48 488C237.98 488 254.48 476.5 254.48 456C254.48 447.5 252.48 440.5 247.48 435C242.98 430.5 235.48 427 223.98 425.5L180.98 419.5C149.48 415 125.48 404.5 109.48 388C92.9805 371 84.9805 347 84.9805 316.5C84.9805 251.5 133.98 204 214.98 204C265.98 204 304.48 216 334.98 246.5L279.98 301.5C257.48 279 227.98 280.5 212.48 280.5C181.98 280.5 169.48 298 169.48 313.5C169.48 318 170.98 324.5 176.48 330C180.98 334.5 188.48 339 200.98 340.5L243.98 346.5C275.98 351 298.98 361 313.98 376C332.98 394.5 340.48 421 340.48 454ZM604.867 563H522.867V400C522.867 371 501.867 365 491.367 365C480.867 365 459.867 371 459.867 400V563H377.867V207H459.867V316C476.867 299 498.367 291 518.867 291C576.867 291 604.867 334 604.867 388.5V563ZM859.988 563H779.988V541C763.488 557.5 748.488 565.5 719.988 565.5C692.988 565.5 670.488 556.5 655.488 541.5C639.988 526 631.988 503.5 631.988 478.5C631.988 438 659.488 400.5 723.488 400.5H777.988V393.5C777.988 369 765.988 360 737.488 360C716.488 360 707.488 365 694.488 378L643.488 327C670.988 299.5 695.988 291 741.488 291C818.488 291 859.988 323 859.988 388.5V563ZM777.988 462V455H736.488C720.488 455 710.488 464 710.488 476.5C710.488 488.5 719.488 499 737.488 499C753.488 499 760.988 497.5 769.988 489C775.988 483.5 777.988 475 777.988 462ZM1134.55 428.5C1134.55 468 1136.05 515 1109.55 541.5C1094.05 557 1070.55 566 1044.55 566C1018.05 566 999.555 558.5 984.555 543.5V650H902.555V294H982.055V316C998.555 299.5 1016.05 291 1044.05 291C1070.05 291 1094.05 300 1109.55 315.5C1136.05 342 1134.55 389 1134.55 428.5ZM1052.55 428.5C1052.55 389.5 1049.05 365 1018.55 365C988.055 365 984.555 389.5 984.555 428.5C984.555 467.5 988.055 492 1018.55 492C1049.05 492 1052.55 467.5 1052.55 428.5ZM1401.72 455H1240.72C1240.72 477 1257.72 497 1288.22 497C1316.72 497 1329.22 489 1343.72 474.5L1392.72 523.5C1365.22 551 1338.22 566 1288.22 566C1228.72 566 1160.22 544.5 1160.22 428.5C1160.22 340.5 1210.22 291 1280.72 291C1358.72 291 1401.72 348 1401.72 418.5V455ZM1320.72 400.5C1320.72 394 1319.72 386.5 1316.22 379.5C1311.22 368 1300.22 358.5 1280.72 358.5C1261.22 358.5 1250.22 368 1245.22 379.5C1241.72 386.5 1240.72 394 1240.72 400.5H1320.72Z" fill="black"/>
<path d="M129.245 62.4H149.245V187H129.245V62.4ZM85.2445 47H193.245V65.8H85.2445V47ZM310.288 47H330.288V187H310.288V47ZM220.488 47H240.488V187H220.488V47ZM231.088 104H320.488V122.8H231.088V104ZM372.387 47H458.787V65.8H385.587L392.387 58.8V175.2L385.587 168.2H458.787V187H372.387V47ZM384.187 104H458.787V122.8H384.187V104Z" fill="black"/>
<path d="M1184.33 881.8C1171.79 881.8 1160.73 879 1151.13 873.4C1141.66 867.8 1134.33 859.533 1129.13 848.6C1123.93 837.667 1121.33 824.467 1121.33 809C1121.33 793.533 1123.93 780.333 1129.13 769.4C1134.33 758.467 1141.66 750.2 1151.13 744.6C1160.73 739 1171.79 736.2 1184.33 736.2C1196.73 736.2 1207.66 739 1217.13 744.6C1226.73 750.2 1234.13 758.467 1239.33 769.4C1244.53 780.333 1247.13 793.533 1247.13 809C1247.13 824.467 1244.53 837.667 1239.33 848.6C1234.13 859.533 1226.73 867.8 1217.13 873.4C1207.66 879 1196.73 881.8 1184.33 881.8ZM1184.33 863.2C1192.73 863.2 1200.06 861.2 1206.33 857.2C1212.73 853.067 1217.66 847 1221.13 839C1224.73 830.867 1226.53 820.867 1226.53 809C1226.53 797.133 1224.73 787.2 1221.13 779.2C1217.66 771.067 1212.73 765 1206.33 761C1200.06 756.867 1192.73 754.8 1184.33 754.8C1175.79 754.8 1168.33 756.867 1161.93 761C1155.66 765 1150.73 771.067 1147.13 779.2C1143.66 787.2 1141.93 797.133 1141.93 809C1141.93 820.867 1143.66 830.867 1147.13 839C1150.73 847 1155.66 853.067 1161.93 857.2C1168.33 861.2 1175.79 863.2 1184.33 863.2ZM1282.75 739H1366.75V757.8H1295.95L1302.75 750.8V879H1282.75V739ZM1296.15 798H1366.75V816.8H1296.15V798Z" fill="black"/>
</g>
<defs>
<clipPath id="clip0_3_86">
<rect width="3034" height="1003" fill="white"/>
</clipPath>
</defs>
</svg>
